<svg width="508" height="37" viewBox="0 0 508 37" fill="none" xmlns="http://www.w3.org/2000/svg">
<path d="M0.642046 36V1.09091H15.1989C17.8125 1.09091 20 1.46023 21.7614 2.19886C23.5341 2.9375 24.8636 3.97159 25.75 5.30114C26.6477 6.63068 27.0966 8.17045 27.0966 9.92045C27.0966 11.25 26.8182 12.4375 26.2614 13.483C25.7045 14.517 24.9375 15.375 23.9602 16.0568C22.983 16.7386 21.8523 17.2159 20.5682 17.4886V17.8295C21.9773 17.8977 23.2784 18.2784 24.4716 18.9716C25.6761 19.6648 26.642 20.6307 27.3693 21.8693C28.0966 23.0966 28.4602 24.5511 28.4602 26.233C28.4602 28.108 27.983 29.7841 27.0284 31.2614C26.0739 32.7273 24.6932 33.8864 22.8864 34.7386C21.0795 35.5795 18.8864 36 16.3068 36H0.642046ZM9.07955 29.1989H14.2955C16.125 29.1989 17.4716 28.8523 18.3352 28.1591C19.2102 27.4659 19.6477 26.5 19.6477 25.2614C19.6477 24.3636 19.4375 23.5909 19.017 22.9432C18.5966 22.2841 18 21.7784 17.2273 21.4261C16.4545 21.0625 15.5284 20.8807 14.4489 20.8807H9.07955V29.1989ZM9.07955 15.4432H13.75C14.6705 15.4432 15.4886 15.2898 16.2045 14.983C16.9205 14.6761 17.4773 14.233 17.875 13.6534C18.2841 13.0739 18.4886 12.375 18.4886 11.5568C18.4886 10.3864 18.0739 9.46591 17.2443 8.79545C16.4148 8.125 15.2955 7.78977 13.8864 7.78977H9.07955V15.4432ZM32.4489 36V29.9318L45.1818 18.7841C46.1364 17.9205 46.9489 17.1307 47.6193 16.4148C48.2898 15.6875 48.8011 14.9602 49.1534 14.233C49.5057 13.4943 49.6818 12.6932 49.6818 11.8295C49.6818 10.8636 49.4716 10.0398 49.0511 9.35795C48.6307 8.66477 48.0511 8.13068 47.3125 7.75568C46.5739 7.38068 45.7273 7.19318 44.7727 7.19318C43.8068 7.19318 42.9602 7.39205 42.233 7.78977C41.5057 8.17614 40.9375 8.73864 40.5284 9.47727C40.1307 10.2159 39.9318 11.1136 39.9318 12.1705H31.9375C31.9375 9.79545 32.4716 7.74432 33.5398 6.01705C34.608 4.28977 36.108 2.96023 38.0398 2.02841C39.983 1.08523 42.2386 0.613635 44.8068 0.613635C47.4545 0.613635 49.7557 1.05682 51.7102 1.94318C53.6648 2.82955 55.1761 4.06818 56.2443 5.65909C57.3239 7.23864 57.8636 9.07386 57.8636 11.1648C57.8636 12.4943 57.5966 13.8125 57.0625 15.1193C56.5284 16.4261 55.5682 17.8693 54.1818 19.4489C52.8068 21.0284 50.8523 22.9205 48.3182 25.125L44.142 28.9773V29.1989H58.2898V36H32.4489ZM61.3878 1.09091H70.8139L78.1946 15.6989H78.5014L85.8821 1.09091H95.3082L82.5412 24.3409V36H74.1548V24.3409L61.3878 1.09091ZM109.158 36V1.09091H123.714C126.328 1.09091 128.516 1.46023 130.277 2.19886C132.05 2.9375 133.379 3.97159 134.266 5.30114C135.163 6.63068 135.612 8.17045 135.612 9.92045C135.612 11.25 135.334 12.4375 134.777 13.483C134.22 14.517 133.453 15.375 132.476 16.0568C131.499 16.7386 130.368 17.2159 129.084 17.4886V17.8295C130.493 17.8977 131.794 18.2784 132.987 18.9716C134.192 19.6648 135.158 20.6307 135.885 21.8693C136.612 23.0966 136.976 24.5511 136.976 26.233C136.976 28.108 136.499 29.7841 135.544 31.2614C134.589 32.7273 133.209 33.8864 131.402 34.7386C129.595 35.5795 127.402 36 124.822 36H109.158ZM117.595 29.1989H122.811C124.641 29.1989 125.987 28.8523 126.851 28.1591C127.726 27.4659 128.163 26.5 128.163 25.2614C128.163 24.3636 127.953 23.5909 127.533 22.9432C127.112 22.2841 126.516 21.7784 125.743 21.4261C124.97 21.0625 124.044 20.8807 122.964 20.8807H117.595V29.1989ZM117.595 15.4432H122.266C123.186 15.4432 124.004 15.2898 124.72 14.983C125.436 14.6761 125.993 14.233 126.391 13.6534C126.8 13.0739 127.004 12.375 127.004 11.5568C127.004 10.3864 126.589 9.46591 125.76 8.79545C124.93 8.125 123.811 7.78977 122.402 7.78977H117.595V15.4432ZM162.152 1.09091H170.572V23.608C170.572 26.2102 169.953 28.4773 168.714 30.4091C167.476 32.3295 165.749 33.8182 163.533 34.875C161.317 35.9205 158.743 36.4432 155.811 36.4432C152.845 36.4432 150.254 35.9205 148.038 34.875C145.822 33.8182 144.101 32.3295 142.874 30.4091C141.646 28.4773 141.033 26.2102 141.033 23.608V1.09091H149.47V22.875C149.47 24.0795 149.732 25.1534 150.254 26.0966C150.788 27.0398 151.533 27.7784 152.487 28.3125C153.442 28.8466 154.55 29.1136 155.811 29.1136C157.072 29.1136 158.175 28.8466 159.118 28.3125C160.072 27.7784 160.817 27.0398 161.351 26.0966C161.885 25.1534 162.152 24.0795 162.152 22.875V1.09091ZM194.73 11.5568C194.616 10.3068 194.111 9.33523 193.213 8.64205C192.327 7.9375 191.06 7.58523 189.412 7.58523C188.321 7.58523 187.412 7.72727 186.685 8.01136C185.957 8.29545 185.412 8.6875 185.048 9.1875C184.685 9.67614 184.497 10.2386 184.486 10.875C184.463 11.3977 184.565 11.858 184.793 12.2557C185.031 12.6534 185.372 13.0057 185.815 13.3125C186.27 13.608 186.815 13.8693 187.452 14.0966C188.088 14.3239 188.804 14.5227 189.599 14.6932L192.599 15.375C194.327 15.75 195.849 16.25 197.168 16.875C198.497 17.5 199.611 18.2443 200.509 19.108C201.418 19.9716 202.105 20.9659 202.571 22.0909C203.037 23.2159 203.276 24.4773 203.287 25.875C203.276 28.0795 202.719 29.9716 201.616 31.5511C200.514 33.1307 198.929 34.3409 196.861 35.1818C194.804 36.0227 192.321 36.4432 189.412 36.4432C186.491 36.4432 183.946 36.0057 181.776 35.1307C179.605 34.2557 177.918 32.9261 176.713 31.142C175.509 29.358 174.889 27.1023 174.855 24.375H182.935C183.003 25.5 183.304 26.4375 183.838 27.1875C184.372 27.9375 185.105 28.5057 186.037 28.892C186.98 29.2784 188.071 29.4716 189.31 29.4716C190.446 29.4716 191.412 29.3182 192.207 29.0114C193.014 28.7045 193.634 28.2784 194.065 27.733C194.497 27.1875 194.719 26.5625 194.73 25.858C194.719 25.1989 194.514 24.6364 194.116 24.1705C193.719 23.6932 193.105 23.2841 192.276 22.9432C191.457 22.5909 190.412 22.267 189.139 21.9716L185.491 21.1193C182.469 20.4261 180.088 19.3068 178.349 17.7614C176.611 16.2045 175.747 14.1023 175.759 11.4545C175.747 9.29545 176.327 7.40341 177.497 5.77841C178.668 4.15341 180.287 2.88636 182.355 1.97727C184.423 1.06818 186.781 0.613635 189.429 0.613635C192.134 0.613635 194.48 1.07386 196.469 1.99432C198.469 2.90341 200.02 4.18182 201.122 5.82955C202.224 7.47727 202.787 9.38636 202.81 11.5568H194.73ZM215.986 1.09091V36H207.548V1.09091H215.986ZM250.993 1.09091V36H243.834L229.942 15.8523H229.72V36H221.283V1.09091H228.544L242.283 21.2045H242.572V1.09091H250.993ZM256.298 36V1.09091H280.639V7.94318H264.736V15.1023H279.395V21.9716H264.736V29.1477H280.639V36H256.298ZM304.793 11.5568C304.679 10.3068 304.173 9.33523 303.276 8.64205C302.389 7.9375 301.122 7.58523 299.474 7.58523C298.384 7.58523 297.474 7.72727 296.747 8.01136C296.02 8.29545 295.474 8.6875 295.111 9.1875C294.747 9.67614 294.56 10.2386 294.548 10.875C294.526 11.3977 294.628 11.858 294.855 12.2557C295.094 12.6534 295.435 13.0057 295.878 13.3125C296.332 13.608 296.878 13.8693 297.514 14.0966C298.151 14.3239 298.866 14.5227 299.662 14.6932L302.662 15.375C304.389 15.75 305.912 16.25 307.23 16.875C308.56 17.5 309.673 18.2443 310.571 19.108C311.48 19.9716 312.168 20.9659 312.634 22.0909C313.099 23.2159 313.338 24.4773 313.349 25.875C313.338 28.0795 312.781 29.9716 311.679 31.5511C310.577 33.1307 308.991 34.3409 306.923 35.1818C304.866 36.0227 302.384 36.4432 299.474 36.4432C296.554 36.4432 294.009 36.0057 291.838 35.1307C289.668 34.2557 287.98 32.9261 286.776 31.142C285.571 29.358 284.952 27.1023 284.918 24.375H292.997C293.065 25.5 293.366 26.4375 293.901 27.1875C294.435 27.9375 295.168 28.5057 296.099 28.892C297.043 29.2784 298.134 29.4716 299.372 29.4716C300.509 29.4716 301.474 29.3182 302.27 29.0114C303.077 28.7045 303.696 28.2784 304.128 27.733C304.56 27.1875 304.781 26.5625 304.793 25.858C304.781 25.1989 304.577 24.6364 304.179 24.1705C303.781 23.6932 303.168 23.2841 302.338 22.9432C301.52 22.5909 300.474 22.267 299.202 21.9716L295.554 21.1193C292.531 20.4261 290.151 19.3068 288.412 17.7614C286.673 16.2045 285.81 14.1023 285.821 11.4545C285.81 9.29545 286.389 7.40341 287.56 5.77841C288.73 4.15341 290.349 2.88636 292.418 1.97727C294.486 1.06818 296.844 0.613635 299.491 0.613635C302.196 0.613635 304.543 1.07386 306.531 1.99432C308.531 2.90341 310.082 4.18182 311.185 5.82955C312.287 7.47727 312.849 9.38636 312.872 11.5568H304.793ZM336.48 11.5568C336.366 10.3068 335.861 9.33523 334.963 8.64205C334.077 7.9375 332.81 7.58523 331.162 7.58523C330.071 7.58523 329.162 7.72727 328.435 8.01136C327.707 8.29545 327.162 8.6875 326.798 9.1875C326.435 9.67614 326.247 10.2386 326.236 10.875C326.213 11.3977 326.315 11.858 326.543 12.2557C326.781 12.6534 327.122 13.0057 327.565 13.3125C328.02 13.608 328.565 13.8693 329.202 14.0966C329.838 14.3239 330.554 14.5227 331.349 14.6932L334.349 15.375C336.077 15.75 337.599 16.25 338.918 16.875C340.247 17.5 341.361 18.2443 342.259 19.108C343.168 19.9716 343.855 20.9659 344.321 22.0909C344.787 23.2159 345.026 24.4773 345.037 25.875C345.026 28.0795 344.469 29.9716 343.366 31.5511C342.264 33.1307 340.679 34.3409 338.611 35.1818C336.554 36.0227 334.071 36.4432 331.162 36.4432C328.241 36.4432 325.696 36.0057 323.526 35.1307C321.355 34.2557 319.668 32.9261 318.463 31.142C317.259 29.358 316.639 27.1023 316.605 24.375H324.685C324.753 25.5 325.054 26.4375 325.588 27.1875C326.122 27.9375 326.855 28.5057 327.787 28.892C328.73 29.2784 329.821 29.4716 331.06 29.4716C332.196 29.4716 333.162 29.3182 333.957 29.0114C334.764 28.7045 335.384 28.2784 335.815 27.733C336.247 27.1875 336.469 26.5625 336.48 25.858C336.469 25.1989 336.264 24.6364 335.866 24.1705C335.469 23.6932 334.855 23.2841 334.026 22.9432C333.207 22.5909 332.162 22.267 330.889 21.9716L327.241 21.1193C324.219 20.4261 321.838 19.3068 320.099 17.7614C318.361 16.2045 317.497 14.1023 317.509 11.4545C317.497 9.29545 318.077 7.40341 319.247 5.77841C320.418 4.15341 322.037 2.88636 324.105 1.97727C326.173 1.06818 328.531 0.613635 331.179 0.613635C333.884 0.613635 336.23 1.07386 338.219 1.99432C340.219 2.90341 341.77 4.18182 342.872 5.82955C343.974 7.47727 344.537 9.38636 344.56 11.5568H336.48ZM359.543 36V29.9318L372.276 18.7841C373.23 17.9205 374.043 17.1307 374.713 16.4148C375.384 15.6875 375.895 14.9602 376.247 14.233C376.599 13.4943 376.776 12.6932 376.776 11.8295C376.776 10.8636 376.565 10.0398 376.145 9.35795C375.724 8.66477 375.145 8.13068 374.406 7.75568C373.668 7.38068 372.821 7.19318 371.866 7.19318C370.901 7.19318 370.054 7.39205 369.327 7.78977C368.599 8.17614 368.031 8.73864 367.622 9.47727C367.224 10.2159 367.026 11.1136 367.026 12.1705H359.031C359.031 9.79545 359.565 7.74432 360.634 6.01705C361.702 4.28977 363.202 2.96023 365.134 2.02841C367.077 1.08523 369.332 0.613635 371.901 0.613635C374.548 0.613635 376.849 1.05682 378.804 1.94318C380.759 2.82955 382.27 4.06818 383.338 5.65909C384.418 7.23864 384.957 9.07386 384.957 11.1648C384.957 12.4943 384.69 13.8125 384.156 15.1193C383.622 16.4261 382.662 17.8693 381.276 19.4489C379.901 21.0284 377.946 22.9205 375.412 25.125L371.236 28.9773V29.1989H385.384V36H359.543Z" fill="white"/>
<path d="M398.794 1.09091H408.22L415.601 15.6989H415.908L423.288 1.09091H432.714L419.947 24.3409V36H411.561V24.3409L398.794 1.09091ZM498.621 1.09091H507.041V23.608C507.041 26.2102 506.422 28.4773 505.183 30.4091C503.945 32.3295 502.217 33.8182 500.001 34.875C497.786 35.9205 495.212 36.4432 492.28 36.4432C489.314 36.4432 486.723 35.9205 484.507 34.875C482.291 33.8182 480.57 32.3295 479.342 30.4091C478.115 28.4773 477.501 26.2102 477.501 23.608V1.09091H485.939V22.875C485.939 24.0795 486.2 25.1534 486.723 26.0966C487.257 27.0398 488.001 27.7784 488.956 28.3125C489.911 28.8466 491.018 29.1136 492.28 29.1136C493.541 29.1136 494.643 28.8466 495.587 28.3125C496.541 27.7784 497.286 27.0398 497.82 26.0966C498.354 25.1534 498.621 24.0795 498.621 22.875V1.09091Z" fill="#62D84E"/>
</svg>
