<svg width="513" height="83" viewBox="0 0 513 83" fill="none" xmlns="http://www.w3.org/2000/svg">
<path fill-rule="evenodd" clip-rule="evenodd" d="M454.1 14.0046C450.681 13.9974 447.339 15.0376 444.506 16.9905C441.674 18.9435 439.482 21.719 438.215 24.9573C436.948 28.1956 436.664 31.7474 437.4 35.1521C438.137 38.5569 439.859 41.6576 442.344 44.0523C442.927 44.6183 443.689 44.9528 444.493 44.9954C445.297 45.0379 446.089 44.7857 446.726 44.2843C448.829 42.6889 451.38 41.8272 454 41.8272C456.621 41.8272 459.172 42.6889 461.274 44.2843C461.918 44.7868 462.717 45.0368 463.526 44.9887C464.335 44.9406 465.1 44.5975 465.682 44.0222C468.147 41.6363 469.858 38.554 470.595 35.1704C471.331 31.7867 471.06 28.2558 469.816 25.0304C468.571 21.8049 466.411 19.0318 463.611 17.0666C460.811 15.1014 457.499 14.0336 454.1 14M454 40.0849C452.877 40.1159 451.758 39.9131 450.714 39.4888C449.67 39.0646 448.721 38.4278 447.926 37.6173C447.131 36.8069 446.506 35.8397 446.09 34.7749C445.673 33.7101 445.474 32.5699 445.504 31.424C445.504 29.1264 446.399 26.9228 447.993 25.2981C449.586 23.6735 451.747 22.7607 454 22.7607C456.254 22.7607 458.415 23.6735 460.008 25.2981C461.601 26.9228 462.496 29.1264 462.496 31.424C462.526 32.5699 462.327 33.7101 461.911 34.7749C461.494 35.8397 460.87 36.8069 460.075 37.6173C459.28 38.4278 458.331 39.0646 457.287 39.4888C456.242 39.9131 455.124 40.1159 454 40.0849Z" fill="#62D84E"/>
<path d="M2.64205 46V11.0909H17.1989C19.8125 11.0909 22 11.4602 23.7614 12.1989C25.5341 12.9375 26.8636 13.9716 27.75 15.3011C28.6477 16.6307 29.0966 18.1705 29.0966 19.9205C29.0966 21.25 28.8182 22.4375 28.2614 23.483C27.7045 24.517 26.9375 25.375 25.9602 26.0568C24.983 26.7386 23.8523 27.2159 22.5682 27.4886V27.8295C23.9773 27.8977 25.2784 28.2784 26.4716 28.9716C27.6761 29.6648 28.642 30.6307 29.3693 31.8693C30.0966 33.0966 30.4602 34.5511 30.4602 36.233C30.4602 38.108 29.983 39.7841 29.0284 41.2614C28.0739 42.7273 26.6932 43.8864 24.8864 44.7386C23.0795 45.5795 20.8864 46 18.3068 46H2.64205ZM11.0795 39.1989H16.2955C18.125 39.1989 19.4716 38.8523 20.3352 38.1591C21.2102 37.4659 21.6477 36.5 21.6477 35.2614C21.6477 34.3636 21.4375 33.5909 21.017 32.9432C20.5966 32.2841 20 31.7784 19.2273 31.4261C18.4545 31.0625 17.5284 30.8807 16.4489 30.8807H11.0795V39.1989ZM11.0795 25.4432H15.75C16.6705 25.4432 17.4886 25.2898 18.2045 24.983C18.9205 24.6761 19.4773 24.233 19.875 23.6534C20.2841 23.0739 20.4886 22.375 20.4886 21.5568C20.4886 20.3864 20.0739 19.4659 19.2443 18.7955C18.4148 18.125 17.2955 17.7898 15.8864 17.7898H11.0795V25.4432ZM34.4489 46V39.9318L47.1818 28.7841C48.1364 27.9205 48.9489 27.1307 49.6193 26.4148C50.2898 25.6875 50.8011 24.9602 51.1534 24.233C51.5057 23.4943 51.6818 22.6932 51.6818 21.8295C51.6818 20.8636 51.4716 20.0398 51.0511 19.358C50.6307 18.6648 50.0511 18.1307 49.3125 17.7557C48.5739 17.3807 47.7273 17.1932 46.7727 17.1932C45.8068 17.1932 44.9602 17.392 44.233 17.7898C43.5057 18.1761 42.9375 18.7386 42.5284 19.4773C42.1307 20.2159 41.9318 21.1136 41.9318 22.1705H33.9375C33.9375 19.7955 34.4716 17.7443 35.5398 16.017C36.608 14.2898 38.108 12.9602 40.0398 12.0284C41.983 11.0852 44.2386 10.6136 46.8068 10.6136C49.4545 10.6136 51.7557 11.0568 53.7102 11.9432C55.6648 12.8295 57.1761 14.0682 58.2443 15.6591C59.3239 17.2386 59.8636 19.0739 59.8636 21.1648C59.8636 22.4943 59.5966 23.8125 59.0625 25.1193C58.5284 26.4261 57.5682 27.8693 56.1818 29.4489C54.8068 31.0284 52.8523 32.9205 50.3182 35.125L46.142 38.9773V39.1989H60.2898V46H34.4489ZM63.3878 11.0909H72.8139L80.1946 25.6989H80.5014L87.8821 11.0909H97.3082L84.5412 34.3409V46H76.1548V34.3409L63.3878 11.0909ZM111.158 46V11.0909H125.714C128.328 11.0909 130.516 11.4602 132.277 12.1989C134.05 12.9375 135.379 13.9716 136.266 15.3011C137.163 16.6307 137.612 18.1705 137.612 19.9205C137.612 21.25 137.334 22.4375 136.777 23.483C136.22 24.517 135.453 25.375 134.476 26.0568C133.499 26.7386 132.368 27.2159 131.084 27.4886V27.8295C132.493 27.8977 133.794 28.2784 134.987 28.9716C136.192 29.6648 137.158 30.6307 137.885 31.8693C138.612 33.0966 138.976 34.5511 138.976 36.233C138.976 38.108 138.499 39.7841 137.544 41.2614C136.589 42.7273 135.209 43.8864 133.402 44.7386C131.595 45.5795 129.402 46 126.822 46H111.158ZM119.595 39.1989H124.811C126.641 39.1989 127.987 38.8523 128.851 38.1591C129.726 37.4659 130.163 36.5 130.163 35.2614C130.163 34.3636 129.953 33.5909 129.533 32.9432C129.112 32.2841 128.516 31.7784 127.743 31.4261C126.97 31.0625 126.044 30.8807 124.964 30.8807H119.595V39.1989ZM119.595 25.4432H124.266C125.186 25.4432 126.004 25.2898 126.72 24.983C127.436 24.6761 127.993 24.233 128.391 23.6534C128.8 23.0739 129.004 22.375 129.004 21.5568C129.004 20.3864 128.589 19.4659 127.76 18.7955C126.93 18.125 125.811 17.7898 124.402 17.7898H119.595V25.4432ZM164.152 11.0909H172.572V33.608C172.572 36.2102 171.953 38.4773 170.714 40.4091C169.476 42.3295 167.749 43.8182 165.533 44.875C163.317 45.9205 160.743 46.4432 157.811 46.4432C154.845 46.4432 152.254 45.9205 150.038 44.875C147.822 43.8182 146.101 42.3295 144.874 40.4091C143.646 38.4773 143.033 36.2102 143.033 33.608V11.0909H151.47V32.875C151.47 34.0795 151.732 35.1534 152.254 36.0966C152.788 37.0398 153.533 37.7784 154.487 38.3125C155.442 38.8466 156.55 39.1136 157.811 39.1136C159.072 39.1136 160.175 38.8466 161.118 38.3125C162.072 37.7784 162.817 37.0398 163.351 36.0966C163.885 35.1534 164.152 34.0795 164.152 32.875V11.0909ZM196.73 21.5568C196.616 20.3068 196.111 19.3352 195.213 18.642C194.327 17.9375 193.06 17.5852 191.412 17.5852C190.321 17.5852 189.412 17.7273 188.685 18.0114C187.957 18.2955 187.412 18.6875 187.048 19.1875C186.685 19.6761 186.497 20.2386 186.486 20.875C186.463 21.3977 186.565 21.858 186.793 22.2557C187.031 22.6534 187.372 23.0057 187.815 23.3125C188.27 23.608 188.815 23.8693 189.452 24.0966C190.088 24.3239 190.804 24.5227 191.599 24.6932L194.599 25.375C196.327 25.75 197.849 26.25 199.168 26.875C200.497 27.5 201.611 28.2443 202.509 29.108C203.418 29.9716 204.105 30.9659 204.571 32.0909C205.037 33.2159 205.276 34.4773 205.287 35.875C205.276 38.0795 204.719 39.9716 203.616 41.5511C202.514 43.1307 200.929 44.3409 198.861 45.1818C196.804 46.0227 194.321 46.4432 191.412 46.4432C188.491 46.4432 185.946 46.0057 183.776 45.1307C181.605 44.2557 179.918 42.9261 178.713 41.142C177.509 39.358 176.889 37.1023 176.855 34.375H184.935C185.003 35.5 185.304 36.4375 185.838 37.1875C186.372 37.9375 187.105 38.5057 188.037 38.892C188.98 39.2784 190.071 39.4716 191.31 39.4716C192.446 39.4716 193.412 39.3182 194.207 39.0114C195.014 38.7045 195.634 38.2784 196.065 37.733C196.497 37.1875 196.719 36.5625 196.73 35.858C196.719 35.1989 196.514 34.6364 196.116 34.1705C195.719 33.6932 195.105 33.2841 194.276 32.9432C193.457 32.5909 192.412 32.267 191.139 31.9716L187.491 31.1193C184.469 30.4261 182.088 29.3068 180.349 27.7614C178.611 26.2045 177.747 24.1023 177.759 21.4545C177.747 19.2955 178.327 17.4034 179.497 15.7784C180.668 14.1534 182.287 12.8864 184.355 11.9773C186.423 11.0682 188.781 10.6136 191.429 10.6136C194.134 10.6136 196.48 11.0739 198.469 11.9943C200.469 12.9034 202.02 14.1818 203.122 15.8295C204.224 17.4773 204.787 19.3864 204.81 21.5568H196.73ZM217.986 11.0909V46H209.548V11.0909H217.986ZM252.993 11.0909V46H245.834L231.942 25.8523H231.72V46H223.283V11.0909H230.544L244.283 31.2045H244.572V11.0909H252.993ZM258.298 46V11.0909H282.639V17.9432H266.736V25.1023H281.395V31.9716H266.736V39.1477H282.639V46H258.298ZM306.793 21.5568C306.679 20.3068 306.173 19.3352 305.276 18.642C304.389 17.9375 303.122 17.5852 301.474 17.5852C300.384 17.5852 299.474 17.7273 298.747 18.0114C298.02 18.2955 297.474 18.6875 297.111 19.1875C296.747 19.6761 296.56 20.2386 296.548 20.875C296.526 21.3977 296.628 21.858 296.855 22.2557C297.094 22.6534 297.435 23.0057 297.878 23.3125C298.332 23.608 298.878 23.8693 299.514 24.0966C300.151 24.3239 300.866 24.5227 301.662 24.6932L304.662 25.375C306.389 25.75 307.912 26.25 309.23 26.875C310.56 27.5 311.673 28.2443 312.571 29.108C313.48 29.9716 314.168 30.9659 314.634 32.0909C315.099 33.2159 315.338 34.4773 315.349 35.875C315.338 38.0795 314.781 39.9716 313.679 41.5511C312.577 43.1307 310.991 44.3409 308.923 45.1818C306.866 46.0227 304.384 46.4432 301.474 46.4432C298.554 46.4432 296.009 46.0057 293.838 45.1307C291.668 44.2557 289.98 42.9261 288.776 41.142C287.571 39.358 286.952 37.1023 286.918 34.375H294.997C295.065 35.5 295.366 36.4375 295.901 37.1875C296.435 37.9375 297.168 38.5057 298.099 38.892C299.043 39.2784 300.134 39.4716 301.372 39.4716C302.509 39.4716 303.474 39.3182 304.27 39.0114C305.077 38.7045 305.696 38.2784 306.128 37.733C306.56 37.1875 306.781 36.5625 306.793 35.858C306.781 35.1989 306.577 34.6364 306.179 34.1705C305.781 33.6932 305.168 33.2841 304.338 32.9432C303.52 32.5909 302.474 32.267 301.202 31.9716L297.554 31.1193C294.531 30.4261 292.151 29.3068 290.412 27.7614C288.673 26.2045 287.81 24.1023 287.821 21.4545C287.81 19.2955 288.389 17.4034 289.56 15.7784C290.73 14.1534 292.349 12.8864 294.418 11.9773C296.486 11.0682 298.844 10.6136 301.491 10.6136C304.196 10.6136 306.543 11.0739 308.531 11.9943C310.531 12.9034 312.082 14.1818 313.185 15.8295C314.287 17.4773 314.849 19.3864 314.872 21.5568H306.793ZM338.48 21.5568C338.366 20.3068 337.861 19.3352 336.963 18.642C336.077 17.9375 334.81 17.5852 333.162 17.5852C332.071 17.5852 331.162 17.7273 330.435 18.0114C329.707 18.2955 329.162 18.6875 328.798 19.1875C328.435 19.6761 328.247 20.2386 328.236 20.875C328.213 21.3977 328.315 21.858 328.543 22.2557C328.781 22.6534 329.122 23.0057 329.565 23.3125C330.02 23.608 330.565 23.8693 331.202 24.0966C331.838 24.3239 332.554 24.5227 333.349 24.6932L336.349 25.375C338.077 25.75 339.599 26.25 340.918 26.875C342.247 27.5 343.361 28.2443 344.259 29.108C345.168 29.9716 345.855 30.9659 346.321 32.0909C346.787 33.2159 347.026 34.4773 347.037 35.875C347.026 38.0795 346.469 39.9716 345.366 41.5511C344.264 43.1307 342.679 44.3409 340.611 45.1818C338.554 46.0227 336.071 46.4432 333.162 46.4432C330.241 46.4432 327.696 46.0057 325.526 45.1307C323.355 44.2557 321.668 42.9261 320.463 41.142C319.259 39.358 318.639 37.1023 318.605 34.375H326.685C326.753 35.5 327.054 36.4375 327.588 37.1875C328.122 37.9375 328.855 38.5057 329.787 38.892C330.73 39.2784 331.821 39.4716 333.06 39.4716C334.196 39.4716 335.162 39.3182 335.957 39.0114C336.764 38.7045 337.384 38.2784 337.815 37.733C338.247 37.1875 338.469 36.5625 338.48 35.858C338.469 35.1989 338.264 34.6364 337.866 34.1705C337.469 33.6932 336.855 33.2841 336.026 32.9432C335.207 32.5909 334.162 32.267 332.889 31.9716L329.241 31.1193C326.219 30.4261 323.838 29.3068 322.099 27.7614C320.361 26.2045 319.497 24.1023 319.509 21.4545C319.497 19.2955 320.077 17.4034 321.247 15.7784C322.418 14.1534 324.037 12.8864 326.105 11.9773C328.173 11.0682 330.531 10.6136 333.179 10.6136C335.884 10.6136 338.23 11.0739 340.219 11.9943C342.219 12.9034 343.77 14.1818 344.872 15.8295C345.974 17.4773 346.537 19.3864 346.56 21.5568H338.48ZM361.543 46V39.9318L374.276 28.7841C375.23 27.9205 376.043 27.1307 376.713 26.4148C377.384 25.6875 377.895 24.9602 378.247 24.233C378.599 23.4943 378.776 22.6932 378.776 21.8295C378.776 20.8636 378.565 20.0398 378.145 19.358C377.724 18.6648 377.145 18.1307 376.406 17.7557C375.668 17.3807 374.821 17.1932 373.866 17.1932C372.901 17.1932 372.054 17.392 371.327 17.7898C370.599 18.1761 370.031 18.7386 369.622 19.4773C369.224 20.2159 369.026 21.1136 369.026 22.1705H361.031C361.031 19.7955 361.565 17.7443 362.634 16.017C363.702 14.2898 365.202 12.9602 367.134 12.0284C369.077 11.0852 371.332 10.6136 373.901 10.6136C376.548 10.6136 378.849 11.0568 380.804 11.9432C382.759 12.8295 384.27 14.0682 385.338 15.6591C386.418 17.2386 386.957 19.0739 386.957 21.1648C386.957 22.4943 386.69 23.8125 386.156 25.1193C385.622 26.4261 384.662 27.8693 383.276 29.4489C381.901 31.0284 379.946 32.9205 377.412 35.125L373.236 38.9773V39.1989H387.384V46H361.543Z" fill="white"/>
<path d="M400.794 11.0909H410.22L417.601 25.6989H417.908L425.288 11.0909H434.714L421.947 34.3409V46H413.561V34.3409L400.794 11.0909ZM500.621 11.0909H509.041V33.608C509.041 36.2102 508.422 38.4773 507.183 40.4091C505.945 42.3295 504.217 43.8182 502.001 44.875C499.786 45.9205 497.212 46.4432 494.28 46.4432C491.314 46.4432 488.723 45.9205 486.507 44.875C484.291 43.8182 482.57 42.3295 481.342 40.4091C480.115 38.4773 479.501 36.2102 479.501 33.608V11.0909H487.939V32.875C487.939 34.0795 488.2 35.1534 488.723 36.0966C489.257 37.0398 490.001 37.7784 490.956 38.3125C491.911 38.8466 493.018 39.1136 494.28 39.1136C495.541 39.1136 496.643 38.8466 497.587 38.3125C498.541 37.7784 499.286 37.0398 499.82 36.0966C500.354 35.1534 500.621 34.0795 500.621 32.875V11.0909Z" fill="#62D84E"/>
</svg>
